# xmcd
#
# Track frame offsets:
#	150
#	12251
#	25451
#	40094
#	54606
#	72921
#	98515
#	114316
#	133391
#	147269
#	173512
#	185381
#
# Disc length: 2688 seconds
#
# Revision: 0
# Processed by: cddbd v1.5PL3 Copyright (c) Steve Scherf et al.
# Submitted via: audiograbber 1.83.01
#
DISCID=9f0a7e0c
DTITLE=The John Dummer Blues Band - Cabal
DYEAR=1900
DGENRE=Blues
TTITLE0=I Need Love
TTITLE1=Just A Feeling
TTITLE2=No Chance With You
TTITLE3=Young Fashioned Ways
TTITLE4=Sitting And Thinking
TTITLE5=Low Down Santa Fé
TTITLE6=When You Got A Good Friend
TTITLE7=Welfare Blues
TTITLE8=Hound Dog
TTITLE9=Blue Guitar
TTITLE10=After Hours
TTITLE11=Daddy Please Don't Cry
EXTD=SMCL20136
EXTT0=
EXTT1=
EXTT2=
EXTT3=
EXTT4=
EXTT5=
EXTT6=
EXTT7=
EXTT8=
EXTT9=
EXTT10=
EXTT11=
PLAYORDER=
